<?xml version="1.0" standalone="no"?>
<!DOCTYPE svg PUBLIC "-//W3C//DTD SVG 20010904//EN"
 "http://www.w3.org/TR/2001/REC-SVG-20010904/DTD/svg10.dtd">
<svg version="1.0" xmlns="http://www.w3.org/2000/svg"
 width="1024.000000pt" height="1024.000000pt" viewBox="0 0 1024.000000 1024.000000"
 preserveAspectRatio="xMidYMid meet">
<metadata>
Created by potrace 1.14, written by Peter Selinger 2001-2017
</metadata>
<g transform="translate(0.000000,1024.000000) scale(0.100000,-0.100000)"
fill="#000000" stroke="none">
<path d="M6288 8385 l-3 -1854 -90 87 c-123 119 -186 171 -317 259 -277 185
-644 313 -1018 357 -203 24 -654 25 -775 2 -11 -2 -45 -7 -75 -11 -111 -14
-150 -21 -290 -51 -63 -14 -122 -28 -130 -31 -8 -3 -23 -8 -32 -9 -44 -9 -265
-88 -364 -129 -436 -186 -792 -456 -1086 -823 -54 -68 -98 -126 -98 -131 0 -4
-9 -16 -19 -28 -23 -24 -152 -239 -203 -338 -109 -212 -231 -560 -269 -775 -6
-30 -12 -62 -14 -70 -1 -8 -7 -40 -11 -70 -4 -30 -9 -57 -9 -60 -1 -3 -5 -32
-9 -65 -4 -33 -10 -71 -12 -85 -24 -150 -23 -681 1 -870 3 -19 7 -55 10 -80 3
-25 8 -52 10 -60 2 -8 6 -33 9 -55 5 -44 30 -169 51 -255 110 -455 316 -867
604 -1211 287 -344 650 -610 1061 -779 85 -35 354 -130 363 -128 1 0 20 -5 42
-10 22 -6 51 -13 65 -15 14 -3 43 -10 65 -15 22 -6 54 -13 70 -15 49 -8 159
-27 180 -31 11 -2 56 -7 100 -11 44 -4 100 -9 125 -11 122 -12 524 -5 630 11
14 2 50 7 80 10 30 3 62 8 70 10 8 2 32 6 52 9 57 9 234 52 323 80 228 70 477
197 597 305 110 100 232 340 265 524 4 23 7 92 7 152 0 175 -14 246 -95 455
-40 103 -189 365 -288 505 -76 109 -222 252 -366 360 -66 49 -122 92 -125 95
-3 3 -32 25 -65 49 -33 24 -72 55 -87 69 -16 14 -28 21 -28 16 0 -6 10 -19 23
-30 34 -32 176 -182 237 -253 30 -35 60 -69 65 -75 6 -6 33 -42 61 -81 106
-145 173 -272 269 -514 66 -167 75 -143 -90 -225 -104 -52 -237 -98 -315 -110
-105 -17 -144 -20 -240 -20 -136 0 -187 6 -330 39 -50 12 -174 61 -244 96
-278 141 -498 385 -608 676 -53 142 -77 271 -83 456 -3 84 -7 170 -10 192 -2
22 -7 72 -10 110 -4 39 -8 81 -10 95 -2 14 -7 48 -10 75 -6 44 -47 288 -60
355 -3 14 -7 36 -10 50 -22 116 -128 543 -159 645 -8 27 -13 51 -11 54 8 7
377 5 515 -3 132 -8 174 -11 256 -21 28 -3 69 -8 91 -10 22 -2 85 -11 139 -20
143 -23 157 -25 174 -30 8 -2 31 -7 50 -10 54 -9 255 -63 350 -95 531 -175
933 -489 1109 -865 49 -103 49 -103 76 -198 35 -124 40 -163 40 -327 0 -207
-22 -326 -92 -489 -51 -119 -165 -306 -195 -319 -15 -7 -8 -25 31 -86 87 -139
126 -248 145 -406 12 -101 19 -381 20 -800 1 -315 4 -416 13 -420 7 -3 385 -5
840 -5 l828 0 1 4573 0 4572 -878 0 -878 0 -2 -1855z"/>
</g>
</svg>
