<svg width="208" height="44" viewBox="0 0 208 44" fill="none" xmlns="http://www.w3.org/2000/svg">
<path d="M27.5139 15.4846H21.9623V34.6514H27.5139V15.4846Z" fill="#222222"/>
<path d="M22.247 11.922C22.8875 12.5158 23.7179 12.8127 24.7381 12.8127C25.7583 12.8127 26.5887 12.5158 27.2292 11.922C27.8698 11.3045 28.1901 10.5326 28.1901 9.60635C28.1901 8.75133 27.8698 8.03881 27.2292 7.46879C26.5887 6.89878 25.7583 6.61377 24.7381 6.61377C23.7179 6.61377 22.8875 6.91065 22.247 7.50442C21.6064 8.09818 21.2861 8.83445 21.2861 9.71322C21.2861 10.592 21.6064 11.3283 22.247 11.922Z" fill="#222222"/>
<path d="M20.8545 34.6514V8.21694H15.3028V17.5153C13.9268 15.9715 12.0169 15.1996 9.57322 15.1996C7.77011 15.1996 6.13307 15.6034 4.66211 16.4109C3.21488 17.2184 2.07607 18.3703 1.24569 19.8666C0.415312 21.3629 0.00012207 23.0967 0.00012207 25.068C0.00012207 27.0393 0.415312 28.7731 1.24569 30.2694C2.07607 31.7657 3.21488 32.9176 4.66211 33.7251C6.13307 34.5326 7.77011 34.9364 9.57322 34.9364C11.2368 34.9364 12.6497 34.5986 13.812 33.9231C14.1268 33.7401 14.4205 33.5075 14.6124 33.198C14.6233 33.1805 14.6345 33.162 14.6461 33.1424L14.6563 33.1251C14.9639 32.6063 15.6596 31.4327 14.6461 29.5459L14.6437 29.5416C13.8401 28.0486 13.4759 27.7747 12.5832 27.1035C12.3335 26.9157 12.0424 26.6968 11.6888 26.4115C13.2844 28.0239 13.451 28.3743 14.0777 30.0018C14.0777 30.0018 14.0778 30.0039 14.0778 30.0079C13.4431 30.4338 12.6792 30.6823 11.8574 30.6823C9.66536 30.6823 7.8862 28.9146 7.86765 26.727C7.8491 24.5393 6.96838 21.691 6.96838 21.691C6.96838 21.691 9.55338 21.5224 11.8574 22.253C14.1614 22.9835 15.8473 24.5529 15.8473 26.6924C15.8473 27.5962 15.5468 28.4298 15.0402 29.0988C14.9881 29.1677 14.9337 29.2348 14.8773 29.3001C15.1084 29.6079 15.238 29.8526 15.3361 30.1356C15.481 30.5536 15.5101 31.001 15.5101 31.4434L15.552 32.4426C15.5659 32.426 15.5381 32.4593 15.552 32.4426V34.6514H20.8545Z" fill="#222222"/>
<path fill-rule="evenodd" clip-rule="evenodd" d="M39.1078 30.4831C40.1042 30.4831 40.982 30.3406 41.7412 30.0556C42.5242 29.7469 43.2478 29.2719 43.9121 28.6306L46.8659 31.8369C45.0628 33.9032 42.4293 34.9364 38.9654 34.9364C36.8064 34.9364 34.8965 34.5207 33.2358 33.6895C31.575 32.8344 30.2939 31.6588 29.3923 30.1625C28.4907 28.6662 28.04 26.968 28.04 25.068C28.04 23.1917 28.4789 21.5054 29.3567 20.0091C30.2583 18.4891 31.4801 17.3134 33.0223 16.4821C34.5881 15.6271 36.3438 15.1996 38.2892 15.1996C40.1161 15.1996 41.7768 15.5915 43.2715 16.3753C44.7662 17.1353 45.9525 18.2516 46.8303 19.7241C47.7318 21.1729 48.1826 22.8948 48.1826 24.8899L34.0187 27.6331C34.422 28.5831 35.0508 29.2956 35.9049 29.7706C36.7827 30.2456 37.8503 30.4831 39.1078 30.4831ZM38.2892 19.4035C36.8895 19.4035 35.7506 19.8547 34.8728 20.7573C33.995 21.6598 33.5323 22.9067 33.4849 24.498L42.8089 22.6811C42.5479 21.6835 42.0141 20.8879 41.2074 20.2941C40.4008 19.7004 39.428 19.4035 38.2892 19.4035Z" fill="#222222"/>
<path d="M58.2133 34.6514C59.02 34.4376 59.6962 34.1289 60.2418 33.7251L58.7827 29.8062C58.1185 30.2813 57.3592 30.5188 56.5051 30.5188C55.7459 30.5188 55.1647 30.305 54.7613 29.8775C54.358 29.4262 54.1563 28.7968 54.1563 27.9893V20.1872H58.8895V15.9121H54.1563V11.2451H48.6047V28.0606C48.6047 30.3169 49.2215 32.0269 50.4552 33.1907C51.6889 34.3545 53.4565 34.9364 55.7578 34.9364C56.6119 34.9364 57.4304 34.8414 58.2133 34.6514Z" fill="#222222"/>
<path d="M87.2585 15.5537C89.6173 15.5537 91.4639 16.2328 92.7982 17.5909C94.1564 18.9491 94.8354 20.9505 94.8354 23.5953V34.4961H92.2979V23.8455C92.2979 21.8917 91.8213 20.4025 90.8682 19.3779C89.939 18.3534 88.6166 17.8411 86.9011 17.8411C84.9472 17.8411 83.4104 18.4487 82.2905 19.6639C81.1707 20.8552 80.6107 22.5112 80.6107 24.6318V34.4961H78.0732V23.8455C78.0732 21.8917 77.5966 20.4025 76.6436 19.3779C75.7143 18.3534 74.38 17.8411 72.6406 17.8411C70.7106 17.8411 69.1738 18.4487 68.0301 19.6639C66.9102 20.8552 66.3503 22.5112 66.3503 24.6318V34.4961H63.8127V15.6967H66.2431V19.1278C66.9102 17.9841 67.8395 17.1025 69.0308 16.483C70.2222 15.8635 71.5922 15.5537 73.141 15.5537C74.7136 15.5537 76.0717 15.8873 77.2154 16.5544C78.3829 17.2216 79.2526 18.2104 79.8245 19.5209C80.5154 18.2819 81.5043 17.3169 82.7909 16.6259C84.1014 15.9111 85.5906 15.5537 87.2585 15.5537Z" fill="#222222"/>
<path d="M115.011 15.6967V34.4961H112.581V30.7791C111.818 32.042 110.805 33.007 109.543 33.6741C108.304 34.3413 106.898 34.6748 105.325 34.6748C103.562 34.6748 101.966 34.2698 100.536 33.4597C99.1064 32.6495 97.9865 31.5178 97.1764 30.0643C96.3663 28.6109 95.9613 26.9549 95.9613 25.0964C95.9613 23.2379 96.3663 21.5819 97.1764 20.1285C97.9865 18.675 99.1064 17.5552 100.536 16.7689C101.966 15.9588 103.562 15.5537 105.325 15.5537C106.85 15.5537 108.22 15.8754 109.435 16.5187C110.674 17.1382 111.687 18.0555 112.473 19.2707V15.6967H115.011ZM105.54 32.4232C106.85 32.4232 108.03 32.1254 109.078 31.5297C110.15 30.9102 110.984 30.0405 111.58 28.9206C112.199 27.8008 112.509 26.526 112.509 25.0964C112.509 23.6668 112.199 22.392 111.58 21.2722C110.984 20.1523 110.15 19.2945 109.078 18.6989C108.03 18.0794 106.85 17.7696 105.54 17.7696C104.205 17.7696 103.002 18.0794 101.93 18.6989C100.882 19.2945 100.048 20.1523 99.4281 21.2722C98.8324 22.392 98.5346 23.6668 98.5346 25.0964C98.5346 26.526 98.8324 27.8008 99.4281 28.9206C100.048 30.0405 100.882 30.9102 101.93 31.5297C103.002 32.1254 104.205 32.4232 105.54 32.4232Z" fill="#222222"/>
<path d="M127.725 15.5537C130.084 15.5537 131.954 16.2447 133.336 17.6267C134.742 18.9848 135.445 20.9743 135.445 23.5953V34.4961H132.907V23.8455C132.907 21.8917 132.419 20.4025 131.442 19.3779C130.465 18.3534 129.071 17.8411 127.26 17.8411C125.235 17.8411 123.627 18.4487 122.435 19.6639C121.268 20.8552 120.684 22.5112 120.684 24.6318V34.4961H118.147V15.6967H120.577V19.1635C121.268 18.0198 122.221 17.1382 123.436 16.5187C124.675 15.8754 126.105 15.5537 127.725 15.5537Z" fill="#222222"/>
<path d="M155.628 15.6967V34.4961H153.198V30.7791C152.435 32.042 151.422 33.007 150.16 33.6741C148.921 34.3413 147.515 34.6748 145.942 34.6748C144.179 34.6748 142.583 34.2698 141.153 33.4597C139.723 32.6495 138.604 31.5178 137.793 30.0643C136.983 28.6109 136.578 26.9549 136.578 25.0964C136.578 23.2379 136.983 21.5819 137.793 20.1285C138.604 18.675 139.723 17.5552 141.153 16.7689C142.583 15.9588 144.179 15.5537 145.942 15.5537C147.467 15.5537 148.837 15.8754 150.052 16.5187C151.291 17.1382 152.304 18.0555 153.09 19.2707V15.6967H155.628ZM146.157 32.4232C147.467 32.4232 148.647 32.1254 149.695 31.5297C150.767 30.9102 151.601 30.0405 152.197 28.9206C152.816 27.8008 153.126 26.526 153.126 25.0964C153.126 23.6668 152.816 22.392 152.197 21.2722C151.601 20.1523 150.767 19.2945 149.695 18.6989C148.647 18.0794 147.467 17.7696 146.157 17.7696C144.822 17.7696 143.619 18.0794 142.547 18.6989C141.499 19.2945 140.665 20.1523 140.045 21.2722C139.449 22.392 139.152 23.6668 139.152 25.0964C139.152 26.526 139.449 27.8008 140.045 28.9206C140.665 30.0405 141.499 30.9102 142.547 31.5297C143.619 32.1254 144.822 32.4232 146.157 32.4232Z" fill="#222222"/>
<path d="M176.169 15.6967V32.2087C176.169 35.4016 175.383 37.7604 173.81 39.2854C172.262 40.8341 169.915 41.6085 166.769 41.6085C165.03 41.6085 163.374 41.3464 161.802 40.8222C160.253 40.3218 158.99 39.6189 158.013 38.7135L159.3 36.7835C160.205 37.5936 161.301 38.2251 162.588 38.6778C163.898 39.1305 165.268 39.3568 166.698 39.3568C169.081 39.3568 170.832 38.7969 171.952 37.677C173.072 36.581 173.632 34.8655 173.632 32.5304V30.1358C172.845 31.3272 171.809 32.2326 170.522 32.8521C169.259 33.4716 167.854 33.7813 166.305 33.7813C164.542 33.7813 162.933 33.4001 161.48 32.6376C160.05 31.8513 158.918 30.7672 158.085 29.3853C157.274 27.9795 156.869 26.395 156.869 24.6318C156.869 22.8686 157.274 21.296 158.085 19.914C158.918 18.5321 160.05 17.4599 161.48 16.6974C162.909 15.9349 164.518 15.5537 166.305 15.5537C167.901 15.5537 169.343 15.8754 170.629 16.5187C171.916 17.162 172.953 18.0913 173.739 19.3065V15.6967H176.169ZM166.555 31.5297C167.913 31.5297 169.14 31.2438 170.236 30.6719C171.332 30.0762 172.178 29.2542 172.774 28.2058C173.393 27.1574 173.703 25.9661 173.703 24.6318C173.703 23.2975 173.393 22.118 172.774 21.0935C172.178 20.0451 171.332 19.235 170.236 18.6631C169.164 18.0675 167.937 17.7696 166.555 17.7696C165.197 17.7696 163.97 18.0555 162.874 18.6274C161.802 19.1992 160.956 20.0094 160.336 21.0577C159.741 22.1061 159.443 23.2975 159.443 24.6318C159.443 25.9661 159.741 27.1574 160.336 28.2058C160.956 29.2542 161.802 30.0762 162.874 30.6719C163.97 31.2438 165.197 31.5297 166.555 31.5297Z" fill="#222222"/>
<path d="M187.375 32.4232C188.543 32.4232 189.615 32.2207 190.592 31.8156C191.593 31.3867 192.439 30.7672 193.13 29.9571L194.559 31.6012C193.725 32.6019 192.689 33.3644 191.45 33.8885C190.211 34.4127 188.841 34.6748 187.34 34.6748C185.41 34.6748 183.694 34.2698 182.193 33.4597C180.692 32.6257 179.525 31.482 178.691 30.0286C177.857 28.5751 177.44 26.9311 177.44 25.0964C177.44 23.2617 177.833 21.6177 178.619 20.1642C179.429 18.7108 180.537 17.579 181.943 16.7689C183.349 15.9588 184.945 15.5537 186.732 15.5537C188.4 15.5537 189.901 15.9349 191.235 16.6974C192.594 17.4599 193.666 18.5202 194.452 19.8783C195.262 21.2364 195.691 22.7852 195.739 24.5246L180.299 27.5268C180.775 29.0517 181.633 30.2549 182.872 31.1365C184.135 31.9943 185.636 32.4232 187.375 32.4232ZM186.732 17.7339C185.422 17.7339 184.242 18.0436 183.194 18.6631C182.169 19.2588 181.359 20.1047 180.764 21.2007C180.192 22.2729 179.906 23.5119 179.906 24.9177C179.906 25.2751 179.918 25.5372 179.941 25.704L193.201 23.1307C192.915 21.5581 192.189 20.2714 191.021 19.2707C189.853 18.2462 188.424 17.7339 186.732 17.7339Z" fill="#222222"/>
<path d="M199.403 19.3779C199.998 18.1151 200.88 17.162 202.047 16.5187C203.239 15.8754 204.704 15.5537 206.444 15.5537V18.0198L205.836 17.9841C203.858 17.9841 202.31 18.5916 201.19 19.8068C200.07 21.022 199.51 22.7256 199.51 24.9177V34.4961H196.972V15.6967H199.403V19.3779Z" fill="#222222"/>
</svg>
