<svg width="192" height="192" viewBox="0 0 192 192" fill="none" xmlns="http://www.w3.org/2000/svg">
  <circle cx="96" cy="96" r="96" fill="url('#green-gradient')" />
  <path d="M116.876 2.27625V64.5463C108.706 55.3808 97.3673 50.7981 82.8591 50.7981C72.154 50.7981 62.4349 53.1952 53.7017 57.9895C45.1095 62.7837 38.3484 69.6226 33.4184 78.5061C28.4884 87.3896 26.0234 97.6831 26.0234 109.387C26.0234 121.09 28.4884 131.384 33.4184 140.268C38.3484 149.151 45.1095 155.99 53.7017 160.784C62.4349 165.578 72.154 167.976 82.8591 167.976C92.7357 167.976 101.124 165.97 108.025 161.96C109.894 160.873 111.637 159.492 112.777 157.655C112.841 157.551 112.908 157.441 112.977 157.325L113.038 157.222C114.864 154.142 118.994 147.174 112.977 135.973L112.963 135.947C108.192 127.083 106.029 125.457 100.73 121.472L100.728 121.47C99.2457 120.356 97.518 119.057 95.4193 117.363C104.893 126.936 105.881 129.016 109.603 138.679L109.603 138.715C105.834 141.244 101.3 142.719 96.4203 142.719C83.4061 142.719 72.8432 132.224 72.7331 119.236C72.623 106.248 67.3941 89.3376 67.3941 89.3376C67.3941 89.3376 82.7413 88.3367 96.4203 92.6739C110.099 97.0111 120.108 106.329 120.108 119.031C120.108 124.397 118.324 129.346 115.317 133.318C115.007 133.727 114.685 134.125 114.35 134.513C115.722 136.34 116.491 137.793 117.073 139.473C117.934 141.955 118.107 144.611 118.107 147.238L118.355 153.17V166.283H149.836V16.5049C140 9.83032 128.859 4.93353 116.876 2.27625Z" fill="#304C29"/>
  <defs>
  <linearGradient id="green-gradient" gradient-transform="rotate(90)">
    <stop stop-color="#4CC528" />
    <stop offset="100%" stop-color="#0E8E4E" />
  </linearGradient>
  </defs>
</svg>
